<svg width="24" height="24" viewBox="0 0 24 24" fill="none" xmlns="http://www.w3.org/2000/svg">
<path d="M12 15.5685C12 18 14.0097 19.2957 15.4809 20.4554C16 20.8647 16.5 21.25 17 21.25C17.5 21.25 18 20.8647 18.5191 20.4554C19.9903 19.2957 22 18 22 15.5685C22 13.1371 19.2499 11.4127 17 13.7503C14.7501 11.4127 12 13.1371 12 15.5685Z" fill="black"/>
<path d="M15.4809 20.4554L15.1713 20.8481H15.1713L15.4809 20.4554ZM17 13.7503L16.6398 14.0971C16.734 14.195 16.8641 14.2503 17 14.2503C17.1359 14.2503 17.266 14.195 17.3602 14.0971L17 13.7503ZM18.5191 20.4554L18.2096 20.0628H18.2096L18.5191 20.4554ZM15.7904 20.0628C15.0252 19.4595 14.2104 18.8863 13.5626 18.1569C12.932 17.4468 12.5 16.6282 12.5 15.5685H11.5C11.5 16.9403 12.0729 17.9853 12.8149 18.8209C13.5398 19.6372 14.4654 20.2916 15.1713 20.8481L15.7904 20.0628ZM12.5 15.5685C12.5 14.5399 13.0811 13.6837 13.8641 13.3258C14.6157 12.9822 15.6428 13.0612 16.6398 14.0971L17.3602 13.4036C16.1073 12.1018 14.6344 11.8742 13.4484 12.4163C12.294 12.944 11.5 14.1657 11.5 15.5685H12.5ZM15.1713 20.8481C15.4263 21.0491 15.708 21.2699 15.9953 21.4379C16.2826 21.6057 16.6231 21.75 17 21.75V20.75C16.8769 20.75 16.7174 20.7016 16.4999 20.5745C16.2825 20.4475 16.0546 20.271 15.7904 20.0628L15.1713 20.8481ZM18.8287 20.8481C19.5346 20.2916 20.4602 19.6372 21.1851 18.8209C21.9271 17.9853 22.5 16.9403 22.5 15.5685L21.5 15.5685C21.5 16.6282 21.068 17.4468 20.4374 18.1569C19.7896 18.8863 18.9748 19.4595 18.2096 20.0628L18.8287 20.8481ZM22.5 15.5685C22.5 14.1657 21.706 12.944 20.5516 12.4163C19.3656 11.8742 17.8927 12.1018 16.6398 13.4036L17.3602 14.0971C18.3572 13.0612 19.3843 12.9822 20.1359 13.3258C20.9189 13.6837 21.5 14.5399 21.5 15.5685L22.5 15.5685ZM18.2096 20.0628C17.9454 20.271 17.7175 20.4475 17.5001 20.5745C17.2826 20.7016 17.1231 20.75 17 20.75V21.75C17.3769 21.75 17.7174 21.6057 18.0047 21.4379C18.292 21.2699 18.5737 21.0491 18.8287 20.8481L18.2096 20.0628Z" fill="black"/>
<path fill-rule="evenodd" clip-rule="evenodd" d="M10.2007 2.27737C10.5998 2.38823 10.8335 2.80164 10.7226 3.20074L9.32006 8.25001L16.7633 8.25001L18.2774 2.79927C18.3882 2.40017 18.8016 2.16651 19.2007 2.27737C19.5998 2.38823 19.8335 2.80164 19.7226 3.20074L18.3201 8.25001L22 8.25001C22.4142 8.25001 22.75 8.58579 22.75 9.00001C22.75 9.41422 22.4142 9.75001 22 9.75001L17.9016 9.75001C17.7716 10.1188 17.3761 10.3289 16.9937 10.2226C16.7488 10.1546 16.5662 9.97267 16.4873 9.75001L8.9034 9.75001L7.37562 15.25H9C9.41421 15.25 9.75 15.5858 9.75 16C9.75 16.4142 9.41421 16.75 9 16.75H6.95895L5.72264 21.2007C5.61178 21.5998 5.19837 21.8335 4.79927 21.7226C4.40016 21.6118 4.1665 21.1984 4.27736 20.7993L5.40216 16.75H2C1.58579 16.75 1.25 16.4142 1.25 16C1.25 15.5858 1.58579 15.25 2 15.25H5.81882L7.3466 9.75001H4C3.58579 9.75001 3.25 9.41422 3.25 9.00001C3.25 8.58579 3.58579 8.25001 4 8.25001H7.76327L9.27736 2.79927C9.38822 2.40017 9.80163 2.16651 10.2007 2.27737Z" fill="black"/>
</svg>
